<svg width="20" height="21" viewBox="0 0 20 21" fill="none" xmlns="http://www.w3.org/2000/svg">
<g clip-path="url(#clip0_1022_355)">
<path d="M14.95 15.2833C13.5255 16.3692 11.7909 16.9707 9.99999 17C4.16666 17 0.833328 10.3333 0.833328 10.3333C1.8699 8.40157 3.30761 6.71383 5.04999 5.38332M8.24999 3.86666C8.8236 3.73239 9.41088 3.66527 9.99999 3.66666C15.8333 3.66666 19.1667 10.3333 19.1667 10.3333C18.6608 11.2797 18.0575 12.1706 17.3667 12.9917M11.7667 12.1C11.5378 12.3456 11.2618 12.5426 10.9551 12.6793C10.6485 12.8159 10.3174 12.8894 9.98174 12.8953C9.64606 12.9012 9.31263 12.8395 9.00134 12.7137C8.69004 12.588 8.40726 12.4008 8.16987 12.1635C7.93247 11.9261 7.74532 11.6433 7.61959 11.332C7.49385 11.0207 7.4321 10.6873 7.43802 10.3516C7.44394 10.0159 7.51742 9.68486 7.65406 9.3782C7.7907 9.07153 7.98771 8.79553 8.23333 8.56666M0.833328 1.16666L19.1667 19.5" stroke="#1E1E1E" stroke-width="2" stroke-linecap="round" stroke-linejoin="round"/>
</g>
<defs>
<clipPath id="clip0_1022_355">
<rect width="20" height="20" fill="white" transform="translate(0 0.333328)"/>
</clipPath>
</defs>
</svg>
