<svg width="24" height="25" viewBox="0 0 24 25" fill="none" xmlns="http://www.w3.org/2000/svg">
<g clip-path="url(#clip0_1022_381)">
<path d="M16 5.5H8C4.13401 5.5 1 8.63401 1 12.5C1 16.366 4.13401 19.5 8 19.5H16C19.866 19.5 23 16.366 23 12.5C23 8.63401 19.866 5.5 16 5.5Z" stroke="#404040" stroke-width="2.5" stroke-linecap="round" stroke-linejoin="round"/>
<path d="M8 15.5C9.65685 15.5 11 14.1569 11 12.5C11 10.8431 9.65685 9.5 8 9.5C6.34315 9.5 5 10.8431 5 12.5C5 14.1569 6.34315 15.5 8 15.5Z" stroke="#404040" stroke-width="2.5" stroke-linecap="round" stroke-linejoin="round"/>
</g>
<defs>
<clipPath id="clip0_1022_381">
<rect width="24" height="24" fill="white" transform="translate(0 0.5)"/>
</clipPath>
</defs>
</svg>
